<svg width="299" height="304" xmlns="http://www.w3.org/2000/svg" xmlns:xlink="http://www.w3.org/1999/xlink" xml:space="preserve" overflow="hidden"><defs><clipPath id="clip0"><rect x="2325" y="981" width="299" height="304"/></clipPath></defs><g clip-path="url(#clip0)" transform="translate(-2325 -981)"><path d="M2366 1237 2624 1237 2624 1008.75C2624 997.29 2611.84 988 2596.84 988L2366 988 2366 1237Z" fill="#4472C4" fill-rule="evenodd"/><path d="M2339 1247 2624 1247 2624 1268 2339 1268 2339 1247Z" fill="#D3D3D3" fill-rule="evenodd"/><path d="M2404 1041.25C2404 1036.14 2413.08 1032 2424.29 1032L2525.71 1032C2536.92 1032 2546 1036.14 2546 1041.25L2546 1059.75C2546 1064.86 2536.92 1069 2525.71 1069L2424.29 1069C2413.08 1069 2404 1064.86 2404 1059.75L2404 1041.25Z" fill="#FFFFFF" fill-rule="evenodd"/><path d="M2345.5 988C2334.18 988 2325 994.948 2325 1003.52L2325 1257 2338.67 1257C2338.67 1251.29 2344.79 1246.65 2352.33 1246.65L2366 1246.65 2366 988 2345.5 988Z" fill="#203864" fill-rule="evenodd"/><path d="M2345.39 1237C2334.13 1237 2325 1243.88 2325 1252.38L2325 1262.63C2325 1271.12 2334.13 1278 2345.39 1278L2603.61 1278C2612.49 1278 2620.04 1273.72 2622.84 1267.75L2352.18 1267.75C2344.68 1267.75 2338.59 1263.16 2338.59 1257.5 2338.59 1251.84 2344.68 1247.25 2352.18 1247.25L2624 1247.25 2624 1237 2345.39 1237Z" fill="#2F5597" fill-rule="evenodd"/><path d="M2570 988 2584 988 2584 1278 2570 1278 2570 988Z" stroke="#8FAADC" stroke-width="13.75" stroke-miterlimit="8" fill="#6B438B" fill-rule="evenodd"/></g></svg>